<?xml version="1.0" encoding="UTF-8"?>
<svg id="Layer_3" xmlns="http://www.w3.org/2000/svg" xmlns:xlink="http://www.w3.org/1999/xlink" viewBox="0 0 141.73 141.73">
  <defs>
    <style>
      .cls-1 {
        fill: url(#linear-gradient-2);
      }

      .cls-2 {
        fill: url(#linear-gradient);
      }
    </style>
    <linearGradient id="linear-gradient" x1="119.14" y1="45.08" x2="77.47" y2="67.71" gradientUnits="userSpaceOnUse">
      <stop offset="0" stop-color="#fff"/>
      <stop offset=".08" stop-color="#dbd9e2"/>
      <stop offset=".22" stop-color="#a6a2b7"/>
      <stop offset=".36" stop-color="#787293"/>
      <stop offset=".49" stop-color="#534b75"/>
      <stop offset=".63" stop-color="#362d5d"/>
      <stop offset=".76" stop-color="#21174d"/>
      <stop offset=".88" stop-color="#150a43"/>
      <stop offset="1" stop-color="#110640"/>
    </linearGradient>
    <linearGradient id="linear-gradient-2" x1="133.65" y1="71.78" x2="91.97" y2="94.41" xlink:href="#linear-gradient"/>
  </defs>
  <path class="cls-2" d="M74.7,16.91c-.02-.07-.09-.11-.77-.11l-5.56.03h-.11l-5.34-.07c-1.57-.04-2.46-.27-2.86-1.43-.33-.95-.84-2.14-1.54-2.76-.89-.8-2.18-1.65-4.34-1.45-1.48.14-2.98,1.11-3.63,2.4-.97,1.94-.88,3.1-.3,4.51,1,2.47,5.04,4.22,7.14,5.53,3.22,2.01,3.02,4.74,1.57,9.05-1.19,3.53-2.29,5.65-3.74,9.08l-20.88,49.69c-1.78,4.05-4.11,10.15-8.9,11.19-2.89.63-5.21,1.69-6.82,4.36-1.23,2.03-2.3,5.21-.3,7.73.42.52,1,.97,1.59,1.28.83.44,1.88.55,2.62,1.11,1.96,1.48,4.05-.03,4.62-1.36.45-1.02.9-1.4,1.41-1.46l14.53-.03c.46.02,1.08.38,1.79.75l-14.34-.16c-.87-.02-1.59-.06-2.06.91-.73,1.52-1.88,3-4.03,2.7-.14-.02-.81,0-.56.16,1.03.67,3.39.82,4.77-1.26.45-.68.86-1.63,1.88-1.63,2.23,0,4.45.02,6.68.07,1.95.04,3.92,0,5.85.13,1.41.1,2.86.57,4.14,1.2,1.92.94,4.24.82,6.24-.68,1.39-1.03,2.22-2.59,2.44-4.14.34-2.36-.06-3.39-.44-4.22-.73-1.62-2.12-2.58-3.42-3.47-1.44-.99-2.88-1.78-4.42-2.7-.44-.26-1.7-.84-2.01-1.79-.39-1.15.28-1.95.75-3l5.87-13.74c.95-2.05,2.86-1.44,2.26-.14-.36.77-1.06,2.82-1.42,3.59-1.09,2.29-2.63,6.09-3.64,8.41-.99,2.29-2.44,4.62-.28,6.33.15.12.74.41.92.46,0,0,1.17.38.68-.12-.42-.43-.76-.78-.93-1.28-.24-.76-.16-1.28.06-1.91.57-1.68,2.47-5.66,3.22-7.3.08-.22.58-.48.82-.5l14.43-.11h15.82c.08,0,.14.05.16.12l10.54,25.33c.03.07.09.12.16.12h21.14c.11,0,.19-.11.16-.22L74.7,16.91ZM68.02,88.85c0,.13-.1.23-.23.23l-10.79-.1c-2.44-.04-3.24.18-2.15-1.99,0-.02,1.87-4.17,1.88-4.19.57-1.14,1.16-1.93,2.98-1.93l8.1.11c.13,0,.23.1.23.23l-.02,7.64ZM68.1,79.12c0,.13-.1.23-.23.23l-15.96-.07c-2.56,0-4.55,1.73-5.62,3.95l-5.59,13.29c-1.13,2.72-.49,4.53,1.71,6.39,1.37,1.16,3.46,2.24,4.94,3.19,1.8,1.15,3.74,2.86,3.48,5.46-.04.46-.48,1.48-1,2.01-1.15,1.18-2.54,1.41-4.08.59-1.4-.74-1.51-2.04-1.42-2.69.08-.48.33-1.37,1.12-1.74.16-.08.32-.18.48-.28.1-.23.58-.76-1.94-.67l-21.78-.17c-.43.08-.2.7.36.8,1.6.26,2.46,1.55,2.31,2.96-.17,1.59-1.47,2.33-3,2.33-1.61,0-3.01-1.07-3.37-2.67-.41-1.79.32-3.28,1.47-4.93,2.03-2.91,3.88-2.72,6.63-3.74,2.6-.96,4.88-2.91,6.45-6.11.58-1.18,1.7-3.68,2.17-4.87l23.21-55.21c.78-1.88,1.39-3.83,2.1-5.74,1.93-5.17.44-7.65-4.57-10.19-1.31-.66-4.25-2.71-4.63-4.18-.35-1.38.19-2.96,1.16-3.81,1.37-1.19,2.89-1.34,4.38-.45,1.12.67,1.58,2.44.96,3.57-.2.36-.42.48-.91.69-1.06.47-1.71.24-2.06.42-.13.07-.24.47.31.49.95.03,3.19.02,4,.03l9.98-.02s.06.03.06.05v1.45c0,.08-.06.14-.14.14-.74,0-1.85,0-2.32,0-2.47.03-4.92.04-7.39.09-.73.02-2.18-.03-2.18.22,0,.36,1.31.81,2,1.1,3.14,1.36,4.21,4.46,4.4,6.5.06.63.05,1.25,0,1.84-.07.64-.2,1.27-.36,1.88,0,0,0,.03,0,.03l-20.8,50.61c-1.99,4.67-4.98,11.5-6.87,16.2-.96,2.4-2.23,4.51-4.57,5.74-1.57.82-2.67,1.1-4.35,1.7-.79.28-2.28.64-3.11.81-.12.02-.29.25-.27.36.03.12.23.29.36.29.79.02,1.58,0,2.37,0,2.18-.02,4.36-.08,6.54-.06,3.9.03,7.8.12,11.7.16.18,0,.51-.12.55-.34.03-.2-.21-.38-.37-.45-.65-.29-1.38-.44-2-.8-1.99-1.12-3.16-2.25-3.91-4.43-.59-1.72-.68-3.64.01-5.61.82-2.32,2.86-6.93,3.8-8.89.09-.17.16-.36.23-.53,1.16-2.63,1.94-5.1,4.89-7.03,1.13-.75,2.34-1.35,3.59-1.35l16.85.03c.13,0,.23.1.23.23v1.22ZM69.22,20.93v2.36c0,.1-.03.19-.1.27-1,1.03-2.67,3.07-3.58,3.96-.24.24-.66.12-.74-.22-.07-.33-.15-.65-.23-.97-.45-1.76-1.15-3.44-2.6-4.73-.31-.27-.11-.79.3-.79h6.82c.07,0,.12.05.12.12ZM47.45,75.53c.34.77.98,1.07.98,1.3,0,.34-.18.33-.99.79-.6.34-1.2.78-1.6,1.14-.3.27-.47.17-.37-.03.26-.55.74-1.75,1.22-2.86.25-.59.42-1.13.77-.34ZM36.82,100.58c.64,2.2,1.14,3.47,2.89,4.91.17.14.08.42-.14.42h-8.42c-.25,0-.31-.34-.09-.44,2.6-1.21,3.71-2.86,4.95-4.91.11-.19.5-1,.8.03ZM60.83,73.7c-.27,0-.31-.17-.25-.33,2.3-5.53,4.83-11.41,6.92-16.43.14-.32.3-.76.21-1l-4.67-10.85s-.04-.06-.06-.09c-.27-.41-.69-.16-.87.29-.24.58-.07.21-.3.76-1.4,3.33-4.03,9.74-5.45,13.06-.91,2.15-1.9,4.28-2.83,6.43-.56,1.29-1.11,2.59-1.6,3.91-.51,1.42-1.3,2.88-.91,4.08.21.62.81,1.27,1.73,1.28l15.39.15c-.14,0-.04.1-.04.23v1.07c0,.13-.11.23-.24.23l-16.08-.13c-1.42,0-2.32-.3-2.94-1.08-.3-.36-1.09-1.42-.24-3.92l15.7-38.42c1.04-2.23,1.81-3.29,4.23-6.46.54-.7.71-.13.7.09l-.03,1.68-5.24,13c-.16.35-.18.74-.05,1.1l13.2,31.15c.03.11.07.22-.24.22h-16.05ZM58.84,72.85c-.26.63-.46.83-1.02.83-.65,0-.9-.11-1.17-.66-.12-.25.31-1.16.42-1.39l7.26-17.25c.36-.73.87-.27,1.01-.02.54,1,.79,1.33.23,2.52l-6.73,15.97ZM68.58,46.41h-1.41c-.31,0-.57-.16-.66-.38l-.79-1.83c-.08-.19.06-.33.31-.33h2.56c.15,0,.27.1.27.21v2.11c0,.12-.13.22-.27.22ZM68.85,47.57v2.52c0,.3-.07.41-.26.41h-.06c-.19,0-.24-.18-.36-.44l-.89-2.08c-.26-.61.11-.62.49-.62h.81c.15,0,.27.1.27.21ZM68.58,43.05h-2.95c-.32,0-.64-.72-.64-.72-.17-.4-.22-.61,0-1.07,0,0,.23-.75.59-.75h2.71c.44,0,.57.1.57.22v2.1c0,.12-.13.22-.27.22ZM68.58,39.69h-2.56c-.24,0-.39-.13-.31-.29l.66-1.58c.09-.19.19-.32.5-.32h1.71c.15,0,.27.08.27.19v1.8c0,.1-.13.19-.27.19ZM68.58,36.7h-.81c-.83,0-1.05,0-.79-.54l1.17-2.98c.07-.17.17-.21.25-.21h.15c.11,0,.3.14.3.24v3.3c0,.1-.13.19-.27.19Z"/>
  <path class="cls-1" d="M58.81,112.07c.14.82-.06,1.86-.13,2.41-.19,1.37-1.24,2.96-2.44,4.03-.84.75-2.65,1.5-3.7,1.57-1.42.1-2.55-.15-3.93-.73-.86-.36-1.2-.76-.93-.8.23-.03,1.47.31,1.73.36,1.18.26,2.28.28,3.35,0,1.66-.43,3.1-1.8,3.83-2.96,1.31-2.07,1.59-4.89.46-7.06-.12-.23-.24-.31-.02-.28.24.04.64.45.91.9.44.71.66,1.38.86,2.55Z"/>
</svg>